<svg xmlns="http://www.w3.org/2000/svg" viewBox="0 0 128 128"><title>icon11.1glyph</title><g id="dessert"><path d="M69.1,68.07a7.27,7.27,0,0,0-10.19,0s-4,4-5.14,4.9l3.5,43.63h13.5L74.27,73C73.61,72.64,69.1,68.07,69.1,68.07Z"/><path d="M43.79,67.62a7.28,7.28,0,0,0-9.8-.35l-7,5.88,6.74,37.31a7.43,7.43,0,0,0,7.32,6.11H53.27L49.79,73.22C49,72.92,43.79,67.62,43.79,67.62Z"/><path d="M62.39,28.81h0a4.7,4.7,0,0,0,1.62.33,4,4,0,0,0,3.49-1.88,4.11,4.11,0,0,0,.7-2.3,4.19,4.19,0,1,0-7.88,2A4.34,4.34,0,0,0,62.39,28.81Z"/><path d="M88.14,46.27,87,46l-.28-1.14c-1.79-7-8.16-12.69-16.41-14.63A7.66,7.66,0,0,1,64,33.14c-3.35,0-6.12-2.75-6.28-2.94-8.24,1.94-14.61,7.57-16.39,14.61L41.06,46l-1.15.3A19.47,19.47,0,0,0,25.74,69l5.67-4.77a11.28,11.28,0,0,1,15.17.54l5,4.84,4.58-4.43A10.84,10.84,0,0,1,64,62a11.38,11.38,0,0,1,7.89,3.25l4.48,4.38,5.11-4.91a11.28,11.28,0,0,1,15.12-.5L102.26,69A19.44,19.44,0,0,0,88.14,46.27Z"/><path d="M84.25,67.56s-5.38,5.34-6,5.58l-3.49,43.43H87a7.43,7.43,0,0,0,7.32-6.11l3.35-18.54L101,73.15l-7-5.91A7.29,7.29,0,0,0,84.25,67.56Z"/><path d="M72.89,7.43a15.1,15.1,0,0,0-7.27,2.83,9,9,0,0,0-3.24,6.67,9.42,9.42,0,0,1,4,.19,5,5,0,0,1,1.69-3.69,11.09,11.09,0,0,1,5.14-2A2,2,0,0,0,75,9.27,2,2,0,0,0,72.89,7.43Z"/></g></svg>