<?xml version="1.0" encoding="utf-8"?>
<!-- Generator: Adobe Illustrator 24.3.0, SVG Export Plug-In . SVG Version: 6.00 Build 0)  -->
<svg version="1.1" id="Layer_1" xmlns="http://www.w3.org/2000/svg" xmlns:xlink="http://www.w3.org/1999/xlink" x="0px" y="0px"
	 viewBox="0 0 32 32" enable-background="new 0 0 32 32" xml:space="preserve">
<g>
	<g>
		<path d="M17.5,17.307c-0.983,0-1.908-0.383-2.604-1.078L7.521,8.854C7.379,8.711,7.336,8.495,7.413,8.309S7.673,8,7.875,8h19.25
			c0.202,0,0.385,0.122,0.462,0.309s0.034,0.402-0.108,0.545l-7.375,7.375C19.408,16.924,18.483,17.307,17.5,17.307z M9.082,9
			l6.521,6.521c1.014,1.012,2.779,1.012,3.793,0L25.918,9H9.082z"/>
	</g>
	<g>
		<path d="M17.5,28.5c-0.276,0-0.5-0.224-0.5-0.5V17c0-0.276,0.224-0.5,0.5-0.5S18,16.724,18,17v11C18,28.276,17.776,28.5,17.5,28.5
			z"/>
	</g>
	<g>
		<path d="M22,29h-9c-0.276,0-0.5-0.224-0.5-0.5S12.724,28,13,28h9c0.276,0,0.5,0.224,0.5,0.5S22.276,29,22,29z"/>
	</g>
	<g>
		<path d="M23,13H12c-0.276,0-0.5-0.224-0.5-0.5S11.724,12,12,12h11c0.276,0,0.5,0.224,0.5,0.5S23.276,13,23,13z"/>
	</g>
	<g>
		<path d="M8.854,13.75c-2.952,0-5.354-2.402-5.354-5.354s2.402-5.354,5.354-5.354s5.354,2.401,5.354,5.354
			c0,0.276-0.224,0.5-0.5,0.5s-0.5-0.224-0.5-0.5c0-2.4-1.953-4.354-4.354-4.354C6.453,4.042,4.5,5.995,4.5,8.396
			c0,2.401,1.953,4.354,4.354,4.354c0.926,0,1.809-0.286,2.554-0.827c0.223-0.161,0.536-0.113,0.698,0.11s0.113,0.536-0.11,0.698
			C11.079,13.397,9.993,13.75,8.854,13.75z"/>
	</g>
</g>
</svg>
