<?xml version="1.0" encoding="utf-8"?>
<!-- Generator: Adobe Illustrator 16.0.0, SVG Export Plug-In . SVG Version: 6.00 Build 0)  -->
<!DOCTYPE svg PUBLIC "-//W3C//DTD SVG 1.1//EN" "http://www.w3.org/Graphics/SVG/1.1/DTD/svg11.dtd">
<svg version="1.1" id="Layer_1" xmlns="http://www.w3.org/2000/svg" xmlns:xlink="http://www.w3.org/1999/xlink" x="0px" y="0px"
	 width="128px" height="128px" viewBox="0 0 128 128" enable-background="new 0 0 128 128" xml:space="preserve">
<g>
	<g>
		<path fill="#282D33" d="M46.872,93.337c-25.389,0-46.051-20.931-46.06-46.657C0.806,34.275,5.577,22.579,14.246,13.746
			C22.958,4.881,34.542,0,46.864,0C59.195,0,70.76,4.857,79.477,13.677c8.71,8.817,13.507,20.531,13.507,32.984
			c0.002,12.406-4.766,24.096-13.425,32.915C70.83,88.45,59.235,93.337,46.91,93.337c-0.001,0,0,0-0.001,0l-0.038-2l0.029-2
			c11.253,0,21.836-4.462,29.806-12.564c7.919-8.065,12.279-18.759,12.277-30.111c0-11.395-4.387-22.11-12.353-30.173
			C68.672,8.435,58.118,4,46.913,4c-11.289,0-21.86,4.457-29.813,12.549C9.17,24.628,4.807,35.329,4.812,46.678
			C4.819,70.2,23.688,89.337,46.872,89.337V93.337z"/>
	</g>
	<g>
		<path fill="#282D33" d="M46.875,82.332c-9.397,0-18.239-3.716-24.896-10.464c-6.651-6.742-10.311-15.69-10.307-25.197
			c-0.002-9.484,3.646-18.42,10.274-25.16c6.658-6.78,15.516-10.518,24.942-10.524c9.422,0,18.269,3.718,24.923,10.47
			c6.65,6.73,10.319,15.679,10.329,25.196c0.002,9.488-3.646,18.42-10.271,25.154c-6.669,6.786-15.535,10.524-24.966,10.525H46.875z
			 M46.901,14.987c-8.355,0.005-16.2,3.317-22.101,9.328c-5.888,5.988-9.129,13.927-9.127,22.357
			c-0.003,8.449,3.248,16.399,9.155,22.387c5.899,5.98,13.729,9.273,22.048,9.273v2l0.026-2c8.351-0.001,16.205-3.314,22.116-9.329
			c5.886-5.981,9.126-13.918,9.124-22.348c-0.008-8.458-3.268-16.409-9.177-22.389C63.067,18.282,55.232,14.987,46.901,14.987z"/>
	</g>
	<g>
		<path fill="#282D33" d="M27.985,46.667l-4-0.001c0.001-6.168,2.373-11.979,6.678-16.36c4.338-4.414,10.103-6.845,16.232-6.845v4
			c-5.048,0-9.799,2.006-13.378,5.649C29.95,36.739,27.986,41.554,27.985,46.667z"/>
	</g>
	<g>
		<g>
			<g>
				<g>
					<path fill="none" stroke="#282D33" stroke-width="4" d="M73.755,73.818"/>
				</g>
			</g>
			<g>
				<path fill="#282D33" d="M114.221,128c-1.706,0-3.401-0.348-5.037-1.035l-0.368-0.154L77.84,95.417l17.168-17.394l31.011,31.424
					l0.15,0.366c1.701,4.161,1.258,8.662-1.218,12.349C122.497,125.817,118.485,128,114.221,128z M111.088,123.418
					c3.904,1.465,8.219-0.024,10.543-3.485c1.65-2.459,1.997-5.446,0.972-8.252L95.008,83.718L83.459,95.417L111.088,123.418z"/>
			</g>
			<g>
				
					<rect x="93.977" y="88.513" transform="matrix(0.712 0.7022 -0.7022 0.712 95.3379 -39.6291)" fill="#282D33" width="4" height="15.777"/>
			</g>
			<g>
				<g>
					
						<rect x="77.307" y="81.125" transform="matrix(0.7023 0.7119 -0.7119 0.7023 83.845 -34.2517)" fill="#282D33" width="11.138" height="4"/>
				</g>
			</g>
		</g>
	</g>
</g>
</svg>
